<?xml version="1.0" encoding="utf-8" ?><svg xmlns="http://www.w3.org/2000/svg" xmlns:xlink="http://www.w3.org/1999/xlink" width="1844" height="853" viewBox="0 0 1844 853"><path fill="#151A20" d="M580.985 178.665C595.412 177.389 616.983 178.246 630.879 181.112C693.132 193.953 747.437 239.731 758.483 304.17C761.366 320.99 760.839 340.203 760.845 357.31L760.657 422.735L760.355 484.044C760.232 502.797 761.019 522.582 757.15 540.829C750.281 573.215 735.213 602.318 706.876 620.665C694.003 628.89 679.683 634.592 664.681 637.466C641.522 641.897 554.822 640.856 531.809 635.807C494.359 627.591 459.179 605.819 438.375 573.13C419.567 543.576 416.296 509.387 423.782 475.748C428.928 459.571 434.037 446.757 445.058 433.348C489.944 378.736 546.52 385.185 609.517 384.976C621.53 384.672 633.777 385.649 645.736 384.328C678.424 380.72 693.981 350.212 690.092 319.949C687.59 301.567 678.025 284.883 663.427 273.441C648.239 261.693 628.999 256.481 609.961 258.958C585.307 262.261 563.944 278.815 554.08 301.98C550.571 309.566 548.212 325.193 542.501 331.159C521.289 353.317 477.412 360.499 453.016 340.592C419.552 313.286 438.391 274.294 460.224 247.125C490.192 209.834 533.097 183.764 580.985 178.665ZM563.5 567.276C612.811 554.417 617.158 508.963 617.53 463.753C617.544 462.119 614.985 457.9 613.236 457.29C597.304 455.017 552.276 455.208 537.447 456.105C520.243 458.127 505.705 464.721 494.801 478.611C485.878 489.846 481.778 504.164 483.4 518.421C485.182 533.439 492.915 547.113 504.865 556.377C521.677 569.345 543.213 571.605 563.5 567.276Z"/><path fill="#151A20" d="M938.285 177.854C952.21 177.547 965.264 178.357 978.925 181.261C1019.61 189.783 1055.27 214.058 1078.13 248.788C1104.02 288.963 1103.27 316.743 1103.27 361.425L1103.21 445.572L1103.15 541.491C1103.14 551.904 1102.56 564.155 1103.07 574.398C1105.33 620.613 1065.38 648.476 1020.86 637.491C1001.22 632.65 985.434 618.068 979.051 598.867C975.213 587.597 976.762 558.684 976.61 544.934C976.114 496.455 975.929 447.972 976.052 399.49C976.047 374.491 977.854 342.997 974.742 318.786C968.302 268.669 913.336 253.108 874.075 277.304C868.42 280.948 862.02 286.864 857.793 292.064C846.824 305.493 841.613 322.719 843.299 339.978C847.524 380.328 879.346 380.905 906.368 398.729C915.9 405.017 922.201 420.972 922.727 432.441C923.646 452.498 923.134 473.944 923.459 494.124C922.899 526.041 925.707 559.173 921.57 590.856C918.197 616.696 894.986 637.093 869.176 638.285C841.923 639.544 818.609 640.863 796.402 622.327C771.835 601.821 776.8 571.813 776.65 542.81L776.322 467.088L776.139 378.728C776.153 356.476 775.172 323.291 780.035 302.272C792.088 250.177 838.827 204.773 888.44 187.432C905.032 181.633 920.751 179.111 938.285 177.854Z"/><path fill="#151A20" d="M1262.83 184.972C1271.22 183.88 1288.4 184.728 1297.13 185.011C1283.91 206.12 1276.63 223.831 1279.27 249.307C1282.7 282.435 1308.36 312.765 1339.82 323.003C1361.71 330.129 1383.07 335.119 1400.85 350.997C1499.53 439.143 1461.77 624.389 1318.1 637.889C1311.09 637.026 1303.47 634.44 1306.18 625.98C1313.21 604.047 1320.75 589.821 1317.11 565.68C1315.11 552.403 1310.01 539.784 1302.22 528.849C1279.92 497.067 1256.29 495.407 1224.08 483.634C1209.62 478.459 1196 471.207 1183.63 462.106C1116.96 412.803 1096.97 320.452 1149.27 253.428C1179.16 215.135 1214.48 191.891 1262.83 184.972Z"/><path fill="#E11B21" d="M1358.89 177.547C1393.33 172.143 1425.65 195.616 1431.18 230.047C1436.72 264.478 1413.37 296.901 1378.98 302.564C1344.4 308.257 1311.78 284.754 1306.22 250.14C1300.65 215.526 1324.27 182.981 1358.89 177.547Z"/><path fill="#151A20" d="M1211.84 511.789C1234.02 508.127 1256.46 516.698 1270.55 534.219C1284.64 551.741 1288.21 575.497 1279.89 596.39C1271.57 617.282 1252.65 632.072 1230.37 635.096C1196.61 639.679 1165.42 616.287 1160.35 582.578C1155.29 548.87 1178.22 517.34 1211.84 511.789Z"/></svg>